<svg width="36" height="36" viewBox="0 0 36 36" fill="none" xmlns="http://www.w3.org/2000/svg">
<path d="M22.3783 0C24.7889 0 25.9938 1.64412 25.9938 3.52404C25.9938 5.87196 23.9007 8.04384 21.173 8.04384C18.8892 8.04384 17.5568 6.69312 17.6202 4.46292C17.6202 2.58336 19.206 0 22.3783 0ZM14.9555 36C13.0521 36 11.6564 34.8257 12.9888 29.6586L15.174 20.4941C15.5545 19.0264 15.6168 18.4396 15.174 18.4396C14.6023 18.4396 12.1316 19.4533 10.6704 20.452L9.71997 18.8662C14.3507 14.9328 19.6783 12.6259 21.9614 12.6259C23.864 12.6259 24.1819 14.9159 23.2304 18.4392L20.7288 28.0728C20.2845 29.7752 20.4757 30.362 20.9185 30.362C21.4895 30.362 23.3618 29.6554 25.2011 28.1873L26.28 29.6557C21.7757 34.236 16.8588 36 14.9555 36Z" fill="#030104"/>
</svg>
