<?xml version="1.0" encoding="iso-8859-1"?>
<!-- Generator: Adobe Illustrator 19.0.0, SVG Export Plug-In . SVG Version: 6.00 Build 0)  -->
<svg version="1.1" id="Layer_1" xmlns="http://www.w3.org/2000/svg" xmlns:xlink="http://www.w3.org/1999/xlink" x="0px" y="0px"
	 viewBox="0 0 397.943 397.943" style="enable-background:new 0 0 397.943 397.943;" xml:space="preserve">
<g>
	<g>
		<path d="M393.978,140.646c-0.125-0.14-12.573-14.127-14.837-16.435c-0.169-0.172-0.337-0.375-0.52-0.586
			c-1.596-1.847-4.916-5.688-10.628-5.688c-1.932,0-3.891,0.464-5.828,1.38c-4.479,2.124-8.241,3.743-10.313,4.568
			c-0.118,0.047-0.265,0.104-0.261,0.11c-0.049-0.001-5.298-0.858-13.989-18.183c-5.946-11.851-7.51-17.22-7.89-19.485
			c4.432-1.742,7.642-3.011,9.901-4.688l0.27-0.197c1.851-1.352,6.185-4.515,6.051-11.499c-0.047-2.319-0.181-15.131-0.261-22.786
			c-0.031-3.066-0.055-5.291-0.061-5.671c-0.072-4.805-3.962-10.391-12.328-11.298c-1.885-0.205-3.592-0.305-5.218-0.305
			c-9.225,0-17.507,3.398-25.317,10.388c-6.949,6.218-11.268,17.063-11.85,29.757c-0.57,12.465,2.22,26.212,8.282,40.968h-1.16
			c-26.203-23.721-60.93-38.189-98.975-38.189c-38.045,0-72.772,14.469-98.976,38.189H78.471c-32.24,0-58.469,26.229-58.469,58.469
			c0,22,12.187,41.833,31.435,51.85c0.032,5.438,0.366,10.896,0.986,16.268c-0.053,0.384-0.09,0.766-0.096,1.142
			c-0.006,0.374-0.029,2.599-0.061,5.665c-0.08,7.655-0.214,20.467-0.261,22.79c-0.134,6.98,4.2,10.144,6.051,11.495l0.264,0.192
			c1.664,1.235,3.844,2.249,6.637,3.39c0.75,1.624,1.531,3.239,2.34,4.836c-1.025,3.146-3.034,8.131-6.958,15.952
			c-8.691,17.322-13.94,18.182-13.938,18.188c-0.048-0.012-0.194-0.07-0.358-0.135c-2.025-0.807-5.787-2.426-10.271-4.552
			c-1.933-0.914-3.892-1.378-5.823-1.378c-5.712,0-9.032,3.842-10.628,5.688c-0.183,0.211-0.351,0.414-0.521,0.588
			c-2.263,2.306-14.711,16.293-14.832,16.429c-6.478,7.272-3.351,13.35-2.173,15.638l0.203,0.4
			c2.808,5.632,15.455,13.908,30.982,14.142c0.263,0.004,0.524,0.006,0.788,0.006c21.137-0.001,38.943-12.529,54.17-38.189h12.027
			c26.974,24.48,62.042,38.19,99.084,38.19c38.045,0,72.773-14.47,98.977-38.19h21.6c32.24,0,58.47-26.229,58.47-58.469
			c0-21.999-12.185-41.831-31.433-51.848c-0.123-20.9-4.611-40.782-12.597-58.784c9.222,6.727,19.223,10.059,30.108,10.059
			c0.265,0,0.525-0.002,0.788-0.006c15.527-0.233,28.175-8.51,30.984-14.146l0.201-0.396
			C397.325,153.991,400.452,147.914,393.978,140.646z M191.549,94.486v16.51h-18.313C179.962,103.935,186.331,98.48,191.549,94.486z
			 M173.014,90.379c-6.912,6.182-13.602,13.16-19.731,20.617h-29.066C138.686,101.07,155.211,93.938,173.014,90.379z
			 M106.029,125.996h36.137c-3.637,5.48-6.945,11.115-9.917,16.881H91.531C95.891,136.851,100.742,131.204,106.029,125.996z
			 M191.548,314.869h-31.417c-16.436-21.707-30.103-50.741-31.812-86.252h63.229V314.869z M52.319,204.205
			c-10.763-8.083-17.317-20.828-17.317-34.74c0-23.969,19.5-43.469,43.469-43.469h7.201
			C67.567,147.695,55.565,174.651,52.319,204.205z M82.132,157.877h43.259c-7.142,17.811-11.235,36.604-12.085,55.74h-46.71
			C67.617,193.545,73.127,174.639,82.132,157.877z M81.167,310.807c-13.88,28.431-29.385,42.251-47.4,42.252l-0.563-0.004
			c-8.999-0.136-15.238-4.041-17.456-5.856c4.416-4.961,12.333-13.798,13.757-15.248c0.362-0.369,0.737-0.793,1.127-1.244
			c4.243,1.982,7.827,3.518,9.915,4.349c0.882,0.351,2.947,1.172,5.802,1.172c0.001,0,0.001,0,0.001,0
			c9.502,0,18.464-8.654,27.396-26.456c7.412-14.774,11.454-25.375,8.705-32.56c-1.881-4.916-5.986-6.531-7.959-7.307l-0.66-0.26
			c-2.426-0.954-5.747-2.26-6.582-2.83l-0.232-0.171c0.056-3.713,0.175-15.07,0.248-22.098c0.009-0.842,0.017-1.62,0.024-2.313
			c0.932-0.079,1.784-0.118,2.583-0.118c3.715,0,8.812,0.746,15.315,6.566C92.549,255.268,97.552,277.246,81.167,310.807z
			 M99.045,307.539c5.867-14.496,8.557-28.008,7.995-40.279c-0.582-12.693-4.9-23.539-11.849-29.756
			c-4.828-4.32-9.837-7.265-15.136-8.887h33.244c1.32,30.979,10.851,59.948,28.391,86.252h-35.766
			C103.55,312.523,101.257,310.078,99.045,307.539z M124.082,329.869h28.755c6.813,8.264,13.636,15.075,19.879,20.569
			C155.228,346.92,138.718,339.918,124.082,329.869z M191.549,346.483c-5.967-4.505-12.321-10.058-18.617-16.614h18.617V346.483z
			 M191.549,213.617h-63.221c0.908-19.438,5.354-38.083,13.286-55.74h49.935V213.617z M191.55,142.877h-0.001h-42.233
			c1.95-3.354,4.03-6.668,6.247-9.938c1.64-2.419,3.3-4.728,4.967-6.942h31.02V142.877z M306.566,142.877h-40.717
			c-2.973-5.766-6.281-11.4-9.918-16.881h36.137C297.354,131.204,302.207,136.851,306.566,142.877z M315.965,157.877
			c9.005,16.762,14.515,35.668,15.536,55.74h-46.709c-0.85-19.137-4.943-37.93-12.085-55.74H315.965z M273.882,110.996h-29.058
			c-6.121-7.449-12.803-14.432-19.706-20.61C242.908,93.946,259.422,101.076,273.882,110.996z M206.549,94.486
			c5.219,3.994,11.588,9.449,18.313,16.51h-18.313V94.486z M206.549,125.996h31.02c1.667,2.215,3.327,4.523,4.967,6.942
			c2.217,3.271,4.297,6.585,6.247,9.938h-42.234V125.996z M206.549,157.877h49.935c7.932,17.657,12.378,36.303,13.286,55.74h-63.221
			V157.877z M206.549,228.617h63.229c-1.709,35.511-15.376,64.545-31.812,86.252h-31.417V228.617z M206.549,346.483v-16.614h18.617
			C218.87,336.426,212.516,341.979,206.549,346.483z M225.395,350.428c6.239-5.492,13.058-12.301,19.866-20.559h28.621
			C259.498,339.737,243.08,346.849,225.395,350.428z M292.069,314.869h-35.661c17.54-26.304,27.07-55.273,28.391-86.252h46.615
			C329.353,262.283,314.682,292.592,292.069,314.869z M345.777,236.66c10.764,8.083,17.317,20.828,17.317,34.74
			c0,23.969-19.5,43.469-43.47,43.469h-7.199C330.53,293.17,342.531,266.215,345.777,236.66z M364.737,155.823l-0.563,0.004
			c-18.015,0-33.52-13.82-47.399-42.252c-16.385-33.561-11.382-55.539-4.021-62.125c6.503-5.82,11.6-6.566,15.314-6.566
			c0.798,0,1.65,0.039,2.583,0.118c0.008,0.692,0.016,1.471,0.024,2.313c0.073,7.003,0.191,18.307,0.247,22.099l-0.213,0.157
			c-0.854,0.583-4.175,1.889-6.601,2.843l-0.66,0.259c-1.973,0.776-6.078,2.392-7.959,7.308c-2.749,7.185,1.293,17.785,8.706,32.56
			c8.932,17.803,17.894,26.456,27.396,26.456c2.854,0,4.92-0.821,5.856-1.193c2.033-0.81,5.599-2.336,9.861-4.326
			c0.391,0.45,0.766,0.874,1.126,1.241c1.424,1.452,9.338,10.285,13.758,15.25C379.976,151.781,373.736,155.688,364.737,155.823z"/>
	</g>
</g>
<g>
</g>
<g>
</g>
<g>
</g>
<g>
</g>
<g>
</g>
<g>
</g>
<g>
</g>
<g>
</g>
<g>
</g>
<g>
</g>
<g>
</g>
<g>
</g>
<g>
</g>
<g>
</g>
<g>
</g>
</svg>
